<svg width="24" height="24" viewBox="0 0 24 24" fill="none" xmlns="http://www.w3.org/2000/svg">
<path d="M15.3082 6.20566C15.3726 6.13744 15.423 6.05719 15.4565 5.96949C15.49 5.88179 15.5058 5.78837 15.5032 5.69454C15.5005 5.60072 15.4794 5.50833 15.441 5.42266C15.4027 5.337 15.3478 5.25972 15.2796 5.19526C15.2114 5.13079 15.1311 5.08039 15.0434 5.04694C14.9557 5.01348 14.8623 4.99763 14.7685 5.00029C14.6747 5.00294 14.5823 5.02405 14.4966 5.06241C14.4109 5.10076 14.3337 5.15562 14.2692 5.22384L8.19532 11.655C8.06989 11.7877 8 11.9633 8 12.1459C8 12.3285 8.06989 12.5041 8.19532 12.6368L14.2692 19.0687C14.3332 19.1384 14.4105 19.1947 14.4965 19.2343C14.5825 19.2739 14.6754 19.296 14.7701 19.2994C14.8647 19.3028 14.959 19.2873 15.0476 19.2539C15.1361 19.2205 15.2172 19.1698 15.286 19.1048C15.3549 19.0398 15.4101 18.9618 15.4485 18.8753C15.4869 18.7888 15.5078 18.6955 15.5098 18.6008C15.5119 18.5062 15.4951 18.4121 15.4605 18.324C15.4259 18.2359 15.3741 18.1555 15.3082 18.0876L9.69736 12.1459L15.3082 6.20566Z" fill="#231916" stroke="#231916" stroke-width="0.4"/>
</svg>
